<svg width="24" height="24" viewBox="0 0 24 24" fill="none" xmlns="http://www.w3.org/2000/svg">
<g id="verified_FILL0_wght400_GRAD0_opsz48 1">
<g id="Vector">
<path d="M9.47463 22.1185C9.00698 22.3348 8.45148 22.1604 8.19142 21.7156L6.97517 19.6352C6.83186 19.39 6.59111 19.2174 6.31297 19.1603L3.87254 18.6593C3.36466 18.555 3.0207 18.0799 3.08026 17.5648L3.34981 15.234C3.38181 14.9573 3.29696 14.6798 3.11569 14.4683L1.56033 12.6537C1.23824 12.278 1.23947 11.7231 1.56322 11.3488L3.11249 9.55743C3.29571 9.34559 3.38168 9.06662 3.34951 8.7884L3.08026 6.46019C3.0207 5.94515 3.36466 5.47 3.87254 5.36574L6.31101 4.86512C6.59029 4.80779 6.83182 4.63397 6.97488 4.38737L8.19251 2.28857C8.45173 1.84176 9.00859 1.66592 9.4774 1.88283L11.5801 2.85571C11.8465 2.97896 12.1535 2.97896 12.4199 2.85571L14.5273 1.88064C14.9941 1.66465 15.5487 1.83803 15.8093 2.28147L17.05 4.39228C17.1933 4.63596 17.4329 4.80764 17.7098 4.86485L20.1289 5.3648C20.6361 5.46964 20.9794 5.94445 20.9199 6.45899L20.6505 8.7884C20.6183 9.06662 20.7043 9.34559 20.8875 9.55743L22.4368 11.3488C22.7605 11.7231 22.7618 12.278 22.4397 12.6537L20.8843 14.4683C20.703 14.6798 20.6182 14.9573 20.6502 15.234L20.9199 17.566C20.9794 18.0806 20.6361 18.5554 20.1289 18.6602L17.7078 19.1606C17.4321 19.2175 17.1932 19.388 17.0498 19.6302L15.8104 21.7227C15.5489 22.1642 14.9958 22.3361 14.5301 22.1206L12.4199 21.1443C12.1535 21.021 11.8465 21.021 11.5801 21.1443L9.47463 22.1185ZM8.86213 19.8638C9.13221 20.2496 9.6349 20.3947 10.069 20.2121L11.6176 19.5608C11.8624 19.4579 12.1381 19.4565 12.3839 19.5571L13.9948 20.216C14.4344 20.3959 14.9398 20.2417 15.2042 19.8471L16.2125 18.3422C16.3493 18.1379 16.5567 17.9912 16.7949 17.9302L18.5172 17.4885C18.9961 17.3658 19.3133 16.9114 19.2637 16.4196L19.0938 14.7339C19.0659 14.4572 19.1544 14.1814 19.3382 13.9727L20.4994 12.6537C20.8293 12.279 20.8323 11.7184 20.5064 11.3402L19.3305 9.97554C19.1514 9.7677 19.0656 9.49541 19.0931 9.22243L19.2623 7.54448C19.3125 7.0465 18.9869 6.5881 18.5001 6.47161L16.7977 6.06419C16.5577 6.00677 16.3475 5.86266 16.2074 5.65958L15.16 4.14169C14.8918 3.75299 14.3882 3.6049 13.9523 3.78653L12.3811 4.4412C12.137 4.5429 11.8626 4.54379 11.6179 4.44367L10.0052 3.78395C9.56563 3.60412 9.06019 3.75831 8.79582 4.15288L7.79268 5.6501C7.65272 5.859 7.4392 6.0075 7.19466 6.06602L5.49989 6.47161C5.01313 6.5881 4.68746 7.0465 4.73768 7.54448L4.90688 9.22243C4.93441 9.49541 4.84857 9.7677 4.66948 9.97554L3.49359 11.3402C3.16768 11.7184 3.17066 12.279 3.50058 12.6537L4.6625 13.9735C4.84586 14.1817 4.93445 14.4568 4.90706 14.733L4.7361 16.4568C4.68677 16.9543 5.01233 17.4117 5.49847 17.5281L7.20606 17.9367C7.44376 17.9936 7.65239 18.1356 7.79255 18.3358L8.86213 19.8638ZM10.221 14.626C10.6107 15.013 11.2395 15.0132 11.6296 14.6266L16.0317 10.2632C16.3408 9.95692 16.3302 9.4542 16.0086 9.16114C15.7095 8.88866 15.2494 8.89808 14.9618 9.18258L11.6468 12.4611C11.2499 12.8536 10.6086 12.8452 10.2221 12.4425L9.10557 11.279C8.79961 10.9601 8.2923 10.9521 7.97641 11.2611C7.65944 11.5712 7.65754 12.0807 7.97221 12.3932L10.221 14.626Z" fill="#EF7F1A"/>
<path d="M9.47463 22.1185C9.00698 22.3348 8.45148 22.1604 8.19142 21.7156L6.97517 19.6352C6.83186 19.39 6.59111 19.2174 6.31297 19.1603L3.87254 18.6593C3.36466 18.555 3.0207 18.0799 3.08026 17.5648L3.34981 15.234C3.38181 14.9573 3.29696 14.6798 3.11569 14.4683L1.56033 12.6537C1.23824 12.278 1.23947 11.7231 1.56322 11.3488L3.11249 9.55743C3.29571 9.34559 3.38168 9.06662 3.34951 8.7884L3.08026 6.46019C3.0207 5.94515 3.36466 5.47 3.87254 5.36574L6.31101 4.86512C6.59029 4.80779 6.83182 4.63397 6.97488 4.38737L8.19251 2.28857C8.45173 1.84176 9.00859 1.66592 9.4774 1.88283L11.5801 2.85571C11.8465 2.97896 12.1535 2.97896 12.4199 2.85571L14.5273 1.88064C14.9941 1.66465 15.5487 1.83803 15.8093 2.28147L17.05 4.39228C17.1933 4.63596 17.4329 4.80764 17.7098 4.86485L20.1289 5.3648C20.6361 5.46964 20.9794 5.94445 20.9199 6.45899L20.6505 8.7884C20.6183 9.06662 20.7043 9.34559 20.8875 9.55743L22.4368 11.3488C22.7605 11.7231 22.7618 12.278 22.4397 12.6537L20.8843 14.4683C20.703 14.6798 20.6182 14.9573 20.6502 15.234L20.9199 17.566C20.9794 18.0806 20.6361 18.5554 20.1289 18.6602L17.7078 19.1606C17.4321 19.2175 17.1932 19.388 17.0498 19.6302L15.8104 21.7227C15.5489 22.1642 14.9958 22.3361 14.5301 22.1206L12.4199 21.1443C12.1535 21.021 11.8465 21.021 11.5801 21.1443L9.47463 22.1185ZM8.86213 19.8638C9.13221 20.2496 9.6349 20.3947 10.069 20.2121L11.6176 19.5608C11.8624 19.4579 12.1381 19.4565 12.3839 19.5571L13.9948 20.216C14.4344 20.3959 14.9398 20.2417 15.2042 19.8471L16.2125 18.3422C16.3493 18.1379 16.5567 17.9912 16.7949 17.9302L18.5172 17.4885C18.9961 17.3658 19.3133 16.9114 19.2637 16.4196L19.0938 14.7339C19.0659 14.4572 19.1544 14.1814 19.3382 13.9727L20.4994 12.6537C20.8293 12.279 20.8323 11.7184 20.5064 11.3402L19.3305 9.97554C19.1514 9.7677 19.0656 9.49541 19.0931 9.22243L19.2623 7.54448C19.3125 7.0465 18.9869 6.5881 18.5001 6.47161L16.7977 6.06419C16.5577 6.00677 16.3475 5.86266 16.2074 5.65958L15.16 4.14169C14.8918 3.75299 14.3882 3.6049 13.9523 3.78653L12.3811 4.4412C12.137 4.5429 11.8626 4.54379 11.6179 4.44367L10.0052 3.78395C9.56563 3.60412 9.06019 3.75831 8.79582 4.15288L7.79268 5.6501C7.65272 5.859 7.4392 6.0075 7.19466 6.06602L5.49989 6.47161C5.01313 6.5881 4.68746 7.0465 4.73768 7.54448L4.90688 9.22243C4.93441 9.49541 4.84857 9.7677 4.66948 9.97554L3.49359 11.3402C3.16768 11.7184 3.17066 12.279 3.50058 12.6537L4.6625 13.9735C4.84586 14.1817 4.93445 14.4568 4.90706 14.733L4.7361 16.4568C4.68677 16.9543 5.01233 17.4117 5.49847 17.5281L7.20606 17.9367C7.44376 17.9936 7.65239 18.1356 7.79255 18.3358L8.86213 19.8638ZM10.221 14.626C10.6107 15.013 11.2395 15.0132 11.6296 14.6266L16.0317 10.2632C16.3408 9.95692 16.3302 9.4542 16.0086 9.16114C15.7095 8.88866 15.2494 8.89808 14.9618 9.18258L11.6468 12.4611C11.2499 12.8536 10.6086 12.8452 10.2221 12.4425L9.10557 11.279C8.79961 10.9601 8.2923 10.9521 7.97641 11.2611C7.65944 11.5712 7.65754 12.0807 7.97221 12.3932L10.221 14.626Z" fill="white" fill-opacity="0.1"/>
</g>
</g>
</svg>
