<svg width="24" height="24" viewBox="0 0 24 24" fill="none" xmlns="http://www.w3.org/2000/svg">
<g id="school_FILL0_wght400_GRAD0_opsz48 1">
<g id="Vector">
<path d="M11.975 20.775C11.8486 20.775 11.7253 20.7625 11.6052 20.7375C11.4851 20.7125 11.3667 20.6667 11.25 20.6L5.50001 17.45C5.26668 17.3167 5.07918 17.1344 4.93751 16.9031C4.79585 16.6719 4.72501 16.4125 4.72501 16.125V11.025L2.20001 9.65C2.06906 9.57572 1.97382 9.48286 1.91429 9.37143C1.85477 9.25999 1.82501 9.13618 1.82501 9C1.82501 8.86382 1.85477 8.74001 1.91429 8.62858C1.97382 8.51714 2.06906 8.42428 2.20001 8.35L11.25 3.4C11.3645 3.33333 11.4821 3.28333 11.603 3.25C11.7238 3.21667 11.8478 3.2 11.975 3.2C12.1022 3.2 12.2262 3.21667 12.3471 3.25C12.4679 3.28333 12.5855 3.33333 12.7 3.4L22.6 8.775C22.7333 8.85833 22.8333 8.95806 22.9 9.07418C22.9667 9.19028 23 9.31555 23 9.45V16.175C23 16.3875 22.9277 16.5656 22.7831 16.7094C22.6385 16.8531 22.4594 16.925 22.2456 16.925C22.0319 16.925 21.8542 16.8531 21.7125 16.7094C21.5708 16.5656 21.5 16.3875 21.5 16.175V9.875L19.225 11.025V16.125C19.225 16.4125 19.1542 16.6719 19.0125 16.9031C18.8708 17.1344 18.6833 17.3167 18.45 17.45L12.7 20.6C12.5833 20.6667 12.465 20.7125 12.3448 20.7375C12.2247 20.7625 12.1014 20.775 11.975 20.775ZM11.975 13.3L19.85 9L11.975 4.775L4.15001 9L11.975 13.3ZM11.975 19.3L17.725 16.125V11.925L12.7 14.625C12.5833 14.6917 12.4667 14.7375 12.35 14.7625C12.2333 14.7875 12.1083 14.8 11.975 14.8C11.8417 14.8 11.7208 14.7875 11.6125 14.7625C11.5042 14.7375 11.3917 14.6917 11.275 14.625L6.22501 11.875V16.125L11.975 19.3Z" fill="#EF7F1A"/>
<path d="M11.975 20.775C11.8486 20.775 11.7253 20.7625 11.6052 20.7375C11.4851 20.7125 11.3667 20.6667 11.25 20.6L5.50001 17.45C5.26668 17.3167 5.07918 17.1344 4.93751 16.9031C4.79585 16.6719 4.72501 16.4125 4.72501 16.125V11.025L2.20001 9.65C2.06906 9.57572 1.97382 9.48286 1.91429 9.37143C1.85477 9.25999 1.82501 9.13618 1.82501 9C1.82501 8.86382 1.85477 8.74001 1.91429 8.62858C1.97382 8.51714 2.06906 8.42428 2.20001 8.35L11.25 3.4C11.3645 3.33333 11.4821 3.28333 11.603 3.25C11.7238 3.21667 11.8478 3.2 11.975 3.2C12.1022 3.2 12.2262 3.21667 12.3471 3.25C12.4679 3.28333 12.5855 3.33333 12.7 3.4L22.6 8.775C22.7333 8.85833 22.8333 8.95806 22.9 9.07418C22.9667 9.19028 23 9.31555 23 9.45V16.175C23 16.3875 22.9277 16.5656 22.7831 16.7094C22.6385 16.8531 22.4594 16.925 22.2456 16.925C22.0319 16.925 21.8542 16.8531 21.7125 16.7094C21.5708 16.5656 21.5 16.3875 21.5 16.175V9.875L19.225 11.025V16.125C19.225 16.4125 19.1542 16.6719 19.0125 16.9031C18.8708 17.1344 18.6833 17.3167 18.45 17.45L12.7 20.6C12.5833 20.6667 12.465 20.7125 12.3448 20.7375C12.2247 20.7625 12.1014 20.775 11.975 20.775ZM11.975 13.3L19.85 9L11.975 4.775L4.15001 9L11.975 13.3ZM11.975 19.3L17.725 16.125V11.925L12.7 14.625C12.5833 14.6917 12.4667 14.7375 12.35 14.7625C12.2333 14.7875 12.1083 14.8 11.975 14.8C11.8417 14.8 11.7208 14.7875 11.6125 14.7625C11.5042 14.7375 11.3917 14.6917 11.275 14.625L6.22501 11.875V16.125L11.975 19.3Z" fill="white" fill-opacity="0.1"/>
</g>
</g>
</svg>
